<svg width="33" height="85" viewBox="0 0 33 85" fill="none" xmlns="http://www.w3.org/2000/svg">
<path d="M16 85V46.5M16 46.5V45M16 46.5L17.5 47.5" stroke="#BCBDBE" stroke-opacity="0.75"/>
<path d="M16 41V2.5M16 2.5V1M16 2.5L17.5 3.5" stroke="#BCBDBE" stroke-opacity="0.5"/>
<path d="M24 84.8652L27.1578 46.4949M27.1578 46.4949L27.2808 45M27.1578 46.4949L28.5707 47.6146" stroke="#BCBDBE" stroke-opacity="0.75"/>
<path d="M28 40.8652L31.1578 2.49495M31.1578 2.49495L31.2808 1M31.1578 2.49495L32.5707 3.61461" stroke="#BCBDBE" stroke-opacity="0.5"/>
<path d="M10.1377 84.7854L6.15516 46.492M6.15516 46.492L6 45M6.15516 46.492L7.75055 47.3314" stroke="#BCBDBE" stroke-opacity="0.75"/>
<path d="M5.13767 40.7854L1.15516 2.49195M1.15516 2.49195L1 1M1.15516 2.49195L2.75056 3.33142" stroke="#BCBDBE" stroke-opacity="0.5"/>
</svg>
