<svg width="430" height="896" viewBox="0 0 430 896" fill="none" xmlns="http://www.w3.org/2000/svg">
<g opacity="0.7">
<path d="M-180.683 0H615.206C615.206 36.881 615.206 73.762 615.206 110.643C615.206 159.175 596.818 199.274 580.408 244.571C569.863 273.69 538.968 329.79 582.581 342.042C607.452 349.026 639.441 332.247 649.104 364.779C658.289 395.72 640.837 449.68 636.544 481.345C631.616 517.713 627.783 554.223 623.137 590.627C617.926 631.592 615.824 671.797 603.283 711.33C585.124 768.543 561.013 823.794 551.58 883.306C504.965 860.551 502.05 811.347 463.366 782.051C433.284 759.279 415.761 776.87 387.587 787.355C330.762 808.5 269.379 759.544 217.323 796.407C185.016 819.285 182.172 866.686 150.306 888.38C121.266 908.129 82.5288 882.386 58.2584 867.853C14.8754 841.845 -28.1542 795.24 -79.5566 785.233C-113.242 778.674 -147.493 792.641 -180.683 796.619C-180.683 732.246 -180.754 667.872 -180.683 603.498C-180.648 575.404 -174.024 537.391 -184.252 510.694C-195.009 482.618 -219.703 473.742 -221.046 440.327C-222.777 396.586 -198.807 351.996 -188.703 310.129C-180.206 274.963 -180.683 241.159 -180.683 205.197V0Z" stroke="#253E6C" stroke-width="0.464466" stroke-miterlimit="10"/>
<path d="M-180.684 765.997C-148.288 763.116 -114.727 752.472 -82.0658 756.715C-34.9734 762.815 4.85906 798.388 44.7975 820.948C80.6379 841.192 120.347 867.694 156.187 834.173C179.451 812.408 190.367 782.475 219.071 766.439C247.934 750.315 275.313 754.488 306.508 760.075C338.798 765.856 362.804 764.512 394.175 756.485C424.398 748.742 447.556 735.64 475.854 758.024C509.309 784.491 519.078 822.185 559.846 840.82" stroke="#253E6C" stroke-width="0.464466" stroke-miterlimit="10"/>
<path d="M-180.684 735.358C-147.723 733.325 -113.914 725.687 -80.8293 728.869C-38.4179 732.953 -1.02306 755.301 37.6259 771.125C74.0139 786.029 108.989 799.59 146.154 779.788C171.502 766.281 190.791 745.506 218.17 735.376C274.678 714.442 341.43 737.126 401.064 729.718C431.764 725.899 467.269 717.076 496.326 731.928C527.574 747.911 543.154 774.219 578.641 783.484" stroke="#253E6C" stroke-width="0.464466" stroke-miterlimit="10"/>
<path d="M-180.684 704.716C-109.374 702.294 -47.6385 703.602 22.6114 718.418C94.0626 733.5 147.779 716.845 217.269 704.646C281.796 693.313 349.326 703.868 414.701 702.878C447.927 702.382 484.403 698.758 517.187 705.406C546.086 711.258 569.296 723.245 599.396 724.094" stroke="#253E6C" stroke-width="0.464466" stroke-miterlimit="10"/>
<path d="M-180.684 674.078C-47.9918 672.999 84.4533 677.525 217.11 673.759C349.167 670.011 481.524 680.354 613.474 675.492" stroke="#253E6C" stroke-width="0.464466" stroke-miterlimit="10"/>
<path d="M-180.719 643.454C-115.486 643.72 -50.4642 638.964 14.8222 640.732C81.9456 642.553 148.521 645.382 215.68 642.075C280.984 638.858 344.893 630.778 409.72 642.765C480.676 655.866 546.334 641.209 617.52 638.663" stroke="#253E6C" stroke-width="0.464466" stroke-miterlimit="10"/>
<path d="M-180.702 612.815C-111.141 609.632 -43.9994 591.705 25.8796 601.411C88.7283 610.127 143.946 613.787 207.236 606.574C275.861 598.759 333.252 586.736 397.973 617.182C431.464 632.935 456.017 643.808 493.359 637.214C536.989 629.505 576.839 611.171 621.194 605.937" stroke="#253E6C" stroke-width="0.464466" stroke-miterlimit="10"/>
<path d="M-180.666 582.141C-107.625 574.22 -32.9419 538.188 40.046 560.076C66.2595 567.926 90.8832 579.666 118.722 581.169C145.13 582.601 170.442 574.945 196.073 569.712C222.745 564.266 250.001 554.86 277.239 553.605C318.343 551.713 347.736 570.773 381.015 592.449C418.11 616.618 446.849 640.574 492.087 627.986C538.72 615.009 577.016 585.377 625.133 575.387" stroke="#253E6C" stroke-width="0.464466" stroke-miterlimit="10"/>
<path d="M-180.648 551.483C-109.285 541.175 -18.4391 486.808 51.0514 520.754C74.5269 532.211 95.2821 548.229 122.608 550.033C145.271 551.536 166.256 541.14 187.224 533.838C209.639 526.041 232.161 510.358 255.725 507.37C299.991 501.783 335.849 535.323 367.715 561.472C405.445 592.43 442.293 631.38 492.829 613.558C541.989 596.214 577.864 556.857 629.196 542.784" stroke="#253E6C" stroke-width="0.464466" stroke-miterlimit="10"/>
<path d="M-181.373 521.603C-109.692 511.508 -16.832 451.978 52.5701 488.541C75.5687 500.67 96.3947 518.491 123.862 520.065C145.501 521.303 166.274 510.235 185.616 501.66C208.791 491.388 229.016 470.295 253.534 464.089C299.867 452.367 336.149 495.083 366.725 524.043C402.901 558.307 440.756 606.38 493.394 586.755C544.62 567.66 579.118 522.576 633.064 507.317" stroke="#253E6C" stroke-width="0.464466" stroke-miterlimit="10"/>
<path d="M-189.993 499.963C-108.791 488.453 -36.0681 436.773 45.5576 469.393C71.1704 479.63 97.8255 494.146 126.141 493.668C148.415 493.297 171.22 482.265 192.205 475.475C218.577 466.953 243.501 451.766 270.633 445.932C314.846 436.455 342.685 462.834 372.413 492.13C409.631 528.817 442.84 578.551 498.694 553.976C549.178 531.769 583.481 487.922 637.798 472.487" stroke="#253E6C" stroke-width="0.464466" stroke-miterlimit="10"/>
<path d="M-203.736 483.608C-160.052 477.137 -121.898 456.416 -79.4867 445.542C-44.035 436.455 -13.0875 442.201 22.011 450.776C56.1026 459.103 94.4336 474.997 130.38 471.037C155.163 468.314 179.044 456.168 203.439 451.182C234.192 444.888 265.492 437.321 296.722 434.138C344.557 429.294 368.439 444.181 399.227 479.453C423.586 507.352 447.821 544.357 489.261 529.329C546.616 508.519 583.251 453.18 643.044 435.111" stroke="#253E6C" stroke-width="0.464466" stroke-miterlimit="10"/>
<path d="M-216.454 466.174C-178.759 460.375 -147.617 440.909 -111.653 429.753C-70.3899 416.953 -28.5968 427.119 13.108 434.633C52.075 441.67 94.3274 453.763 133.966 446.602C161.009 441.723 185.191 429.258 212.889 426.376C248.111 422.716 284.322 421.196 319.703 420.188C362.839 418.968 386.42 418.774 413.358 453.392C437.346 484.226 451.548 515.874 494.613 496.425C550.908 471.019 587.278 417.289 647.318 398.194" stroke="#253E6C" stroke-width="0.464466" stroke-miterlimit="10"/>
<path d="M-222 441.352C-186.389 435.836 -158.621 416.44 -124.989 405.266C-82.4716 391.14 -36.5451 403.817 6.59057 410.411C48.2778 416.776 92.5969 427.438 134.461 418.155C162.9 411.861 187.559 399.644 217.27 398.318C255.389 396.621 293.967 398.318 332.139 398.318C370.311 398.318 399.068 392.218 422.297 427.049C442.858 457.865 453.668 484.775 495.073 465.874C552.057 439.849 588.215 384.298 649.121 364.796" stroke="#253E6C" stroke-width="0.464466" stroke-miterlimit="10"/>
<path d="M-216.418 404.879C-180.878 399.433 -150.637 382.372 -116.263 373.231C-78.3026 363.136 -39.1768 371.781 -0.88109 376.891C41.495 382.531 86.9093 393.104 129.78 385.324C159.809 379.861 187.1 369.501 217.959 367.962C255.601 366.088 293.685 367.679 331.362 367.679C373.615 367.679 399.139 367.061 423.887 404.101C442.345 431.735 457.802 459.475 494.808 443.563C548.294 420.543 581.256 367.291 636.968 346.163" stroke="#253E6C" stroke-width="0.464466" stroke-miterlimit="10"/>
<path d="M-203.736 361.048C-170.881 357.919 -140.781 347.877 -108.615 341.37C-71.5202 333.856 -33.9311 339.09 3.32237 342.891C41.5474 346.798 80.4437 352.703 118.916 349.132C152.142 346.038 184.185 338.223 217.676 337.215C254.965 336.084 292.43 337.039 329.737 337.056C374.321 337.056 392.267 344.57 421.077 379.418C445.401 408.838 464.248 442.943 504.876 422.31C544.673 402.102 567.212 361.314 609.394 342.82" stroke="#253E6C" stroke-width="0.464466" stroke-miterlimit="10"/>
<path d="M-190.028 316.159C-120.573 314.391 -54.2266 305.303 15.6524 309.14C83.447 312.87 149.617 306.824 217.252 306.399C252.775 306.187 288.297 306.399 323.82 306.399C371.76 306.399 390.766 322.789 422.968 357.319C446.62 382.69 476.384 423.779 513.302 395.844C538.244 376.979 549.531 354.189 579.56 341.601" stroke="#253E6C" stroke-width="0.464466" stroke-miterlimit="10"/>
<path d="M-181.39 276.52C-48.5739 277.334 84.3128 275.654 217.147 275.725C247.352 275.725 277.54 275.778 307.745 275.778C353.972 275.778 376.141 281.984 412.334 312.606C438.407 334.671 470.184 372.4 508.692 356.347C528.917 347.913 535.841 329.986 560.765 329.561" stroke="#253E6C" stroke-width="0.464466" stroke-miterlimit="10"/>
<path d="M-180.684 245.119H217.252C285.347 245.119 351.516 233.733 409.631 274.415C439.748 295.49 465.997 318.722 505.176 310.925C525.596 306.858 541.317 298.796 562.761 296.904" stroke="#253E6C" stroke-width="0.464466" stroke-miterlimit="10"/>
<path d="M-180.684 214.478H217.252C282.662 214.478 349.379 205.037 409.119 235.482C442.009 252.243 468.399 266.317 506.324 261.702C530.488 258.767 553.151 252.986 577.616 251.571" stroke="#253E6C" stroke-width="0.464466" stroke-miterlimit="10"/>
<path d="M-180.684 183.839H217.252C283.845 183.839 350.986 178.199 415.672 195.915C477.161 212.747 534.092 203.394 596.64 202.138" stroke="#253E6C" stroke-width="0.464466" stroke-miterlimit="10"/>
<path d="M-180.684 153.2C83.5171 153.2 347.595 156.312 611.584 156.772" stroke="#253E6C" stroke-width="0.464466" stroke-miterlimit="10"/>
<path d="M-180.684 122.56H615.205" stroke="#253E6C" stroke-width="0.464466" stroke-miterlimit="10"/>
<path d="M-180.684 91.9199H615.205" stroke="#253E6C" stroke-width="0.464466" stroke-miterlimit="10"/>
<path d="M-180.684 61.2793H615.205" stroke="#253E6C" stroke-width="0.464466" stroke-miterlimit="10"/>
<path d="M-180.684 30.6401H615.205" stroke="#253E6C" stroke-width="0.464466" stroke-miterlimit="10"/>
<path d="M462.147 0C462.147 77.7755 461.37 155.533 461.052 233.309C460.84 285.271 469.902 338.489 467.252 390.133C465.839 417.696 454.163 441.759 452.202 469.04C448.758 517.006 427.508 588.982 446.02 634.721C454.445 655.531 473.293 670.541 467.111 696.425C460.239 725.191 430.316 742.429 421.29 772.044" stroke="#253E6C" stroke-width="0.464466" stroke-miterlimit="10"/>
<path d="M431.535 0C431.535 74.54 430.987 149.08 430.722 223.62C430.457 299.026 440.367 373.601 434.538 448.955C431.959 482.282 414.542 502.968 403.926 533.325C392.568 565.821 399.58 590.326 413.482 619.357C425.847 645.188 438.742 664.778 432.789 696.036C427.189 725.438 407.847 748.953 402.283 779.045" stroke="#253E6C" stroke-width="0.464466" stroke-miterlimit="10"/>
<path d="M400.923 0C400.923 70.4205 400.587 140.823 400.322 211.226C400.181 252.315 400.693 292.661 407.3 333.326C411.839 361.208 423.868 394.747 420.424 423.283C416.114 459.068 382.446 467.572 363.033 492.696C336.166 527.473 358.882 567.731 379.143 598.795C418.905 659.774 389.83 720.665 386.474 787.938" stroke="#253E6C" stroke-width="0.464466" stroke-miterlimit="10"/>
<path d="M370.31 0C370.31 69.3243 370.081 138.666 370.01 207.991C369.975 242.821 369.162 276.519 378.065 310.448C385.59 339.125 405.621 372.329 400.905 402.597C394.334 444.8 341.73 437.321 317.46 464.337C285.011 500.475 332.35 558.784 351.94 589.088C378.507 630.177 368.208 653.745 364.729 698.618C362.256 730.53 366 763.044 367.502 794.922" stroke="#253E6C" stroke-width="0.464466" stroke-miterlimit="10"/>
<path d="M339.699 0V205.197C339.699 237.923 337.774 270.013 346.676 301.749C354.926 331.187 378.313 366.034 372.908 397.434C365.524 440.274 309.14 426.306 283.439 451.784C247.864 487.038 303.046 553.675 322.282 583.378C334.117 601.641 347.701 623.812 345.246 646.832C343.426 663.947 332.545 679.753 331.114 697.663C328.535 730.018 337.632 763.805 339.823 796.071" stroke="#253E6C" stroke-width="0.464466" stroke-miterlimit="10"/>
<path d="M309.088 0V199.168C309.088 232.336 306.597 266.123 313.698 298.743C319.969 327.58 342.738 368.315 336.714 398.318C329.595 433.82 286.054 431.487 262.878 450.069C222.781 482.211 267.754 543.137 285.771 574.75C300.432 594.64 309.441 616.776 312.815 641.174C308.858 658.572 305.625 676.093 303.152 693.756C300.838 725.527 308.469 758.342 310.554 790.007" stroke="#253E6C" stroke-width="0.464466" stroke-miterlimit="10"/>
<path d="M278.476 0V199.168C278.476 232.283 276.744 265.823 280.896 298.743C284.835 330.002 298.807 366.653 294.303 398.319C289.48 432.282 258.038 436.508 238.979 459.581C210.098 494.517 242.6 545.365 258.233 578.427C270.032 598.371 277.504 619.817 280.666 642.73C278.193 659.279 276.303 675.881 274.996 692.553C273.989 722.627 279.553 753.073 281.443 783.041" stroke="#253E6C" stroke-width="0.464466" stroke-miterlimit="10"/>
<path d="M247.864 0V199.168C247.864 264.426 258.145 333.573 252.739 398.318C250.037 430.656 228.716 444.199 215.733 471.497C198.228 508.325 218.1 549.043 231.013 583.714C254.47 646.708 247.917 715.874 250.938 782.705" stroke="#253E6C" stroke-width="0.464466" stroke-miterlimit="10"/>
<path d="M217.252 0C217.252 131.523 226.65 266.954 216.881 398.089C214.338 432.318 195.278 457.141 187.665 489.531C179.31 525.068 193.494 561.525 203.227 595.241C222.234 661.082 217.252 728.444 217.288 796.407" stroke="#253E6C" stroke-width="0.464466" stroke-miterlimit="10"/>
<path d="M186.64 0V210.872C186.64 274.044 192.469 338.471 189.308 401.483C187.647 434.722 172.421 462.569 166.132 494.57C159.561 527.932 167.651 559.686 174.646 592.377C190.42 666.174 193.476 744.339 195.313 819.816" stroke="#253E6C" stroke-width="0.464466" stroke-miterlimit="10"/>
<path d="M156.029 0V204.861C156.029 272.948 165.762 341.07 164.596 408.891C164.066 439.973 154.474 467.979 150.005 498.336C144.989 532.582 149.652 567.695 152.39 601.907C159.049 684.898 172.068 767.358 177.809 850.279" stroke="#253E6C" stroke-width="0.464466" stroke-miterlimit="10"/>
<path d="M125.417 0V210.236C125.417 279.843 139.566 347.541 140.908 416.724C142.057 476.147 133.86 538.028 129.55 597.345C122.485 694.533 150.058 782.387 160.021 878.567" stroke="#253E6C" stroke-width="0.464466" stroke-miterlimit="10"/>
<path d="M94.8048 0V204.543C94.8048 278.234 111.285 348.283 114.359 421.32C116.903 481.681 114.465 542.324 103.284 601.624C84.33 702.101 126 795.859 137.199 895.31" stroke="#253E6C" stroke-width="0.464466" stroke-miterlimit="10"/>
<path d="M64.1932 0V204.543C64.1932 277.209 77.3529 347.771 79.7199 420.03C81.7513 481.84 86.6442 535.411 73.3255 597.08C51.7047 697.168 93.4625 792.429 104.308 891.774" stroke="#253E6C" stroke-width="0.464466" stroke-miterlimit="10"/>
<path d="M33.599 0V210.236C33.599 277.527 26.9043 347.505 32.8041 414.461C35.3124 442.908 50.5918 454.966 60.0597 479.984C72.5835 513.046 58.2757 552.437 49.1787 584.792C36.7785 628.922 32.2565 664.848 38.2623 710.092C45.3456 763.504 57.1981 815.962 61.2962 869.763" stroke="#253E6C" stroke-width="0.464466" stroke-miterlimit="10"/>
<path d="M2.98693 0V210.872C2.98693 242.891 3.74648 274.521 -2.04733 306.169C-7.69983 337.074 -23.4385 374.645 -19.6761 406.345C-15.4367 442.042 22.912 446.904 40.0108 473.159C60.2008 504.17 36.9196 547.911 25.9502 579.17C9.80525 625.192 1.06156 662.744 5.12429 712.037C8.62177 754.523 14.2743 796.531 15.2281 839.193" stroke="#253E6C" stroke-width="0.464466" stroke-miterlimit="10"/>
<path d="M-27.6243 0V205.197C-27.6243 238.348 -25.8755 269.96 -35.8557 301.89C-45.2883 332.106 -69.8944 366.759 -65.4607 399.362C-59.5962 442.625 -2.96524 438.134 20.9342 467.13C46.2115 497.788 10.0355 554.594 -2.41766 584.332C-19.2692 624.573 -28.4898 658.784 -27.9246 702.348C-27.4476 738.363 -25.8225 774.254 -26.4231 810.268" stroke="#253E6C" stroke-width="0.464466" stroke-miterlimit="10"/>
<path d="M-58.2362 0V199.168C-58.2362 232.23 -54.2794 266.848 -65.1781 298.62C-75.282 328.093 -107.678 365.928 -102.467 398.973C-96.0373 439.637 -40.3248 438.647 -14.7473 459.987C20.9518 489.778 -13.9524 542.112 -28.066 574.873C-46.048 616.581 -57.9712 650.28 -58.8544 695.665C-59.4727 727.454 -60.0909 759.243 -60.6915 791.032" stroke="#253E6C" stroke-width="0.464466" stroke-miterlimit="10"/>
</g>
</svg>
