<svg width="30" height="26" viewBox="0 0 30 26" fill="none" xmlns="http://www.w3.org/2000/svg">
<path d="M27.5074 13.9381L15.0139 26L2.52035 13.9381C1.69629 13.1564 1.04719 12.2169 0.613922 11.1786C0.180656 10.1404 -0.0273891 9.0259 0.00288829 7.90542C0.0331657 6.78494 0.30111 5.68271 0.789847 4.66813C1.27858 3.65356 1.97753 2.74862 2.84266 2.0103C3.7078 1.27198 4.72039 0.716271 5.81667 0.378174C6.91294 0.0400767 8.06916 -0.0730872 9.2125 0.0458065C10.3558 0.1647 11.4616 0.513076 12.46 1.069C13.4584 1.62492 14.328 2.37634 15.0139 3.27595C15.7027 2.38287 16.5733 1.63802 17.5711 1.08799C18.5688 0.537972 19.6723 0.194628 20.8124 0.0794502C21.9526 -0.0357281 23.1048 0.0797392 24.1971 0.418625C25.2893 0.757511 26.2981 1.31252 27.1602 2.04892C28.0223 2.78531 28.7192 3.68725 29.2072 4.69826C29.6953 5.70928 29.964 6.80762 29.9966 7.92454C30.0292 9.04146 29.825 10.1529 29.3967 11.1893C28.9683 12.2258 28.3252 13.1649 27.5074 13.9478" fill="white"/>
</svg>
