<svg width="12" height="10" viewBox="0 0 12 10" fill="none" xmlns="http://www.w3.org/2000/svg">
<path d="M11.003 5.36081L6.00555 10L1.00814 5.36081C0.678516 5.06016 0.418875 4.69879 0.245569 4.29946C0.0722623 3.90013 -0.0109556 3.4715 0.00115531 3.04055C0.0132663 2.60959 0.120444 2.18566 0.315939 1.79543C0.511434 1.40521 0.791011 1.05716 1.13707 0.773191C1.48312 0.489222 1.88816 0.275489 2.32667 0.145451C2.76518 0.0154141 3.22766 -0.0281105 3.685 0.0176179C4.14234 0.0633462 4.58462 0.197337 4.984 0.411153C5.38338 0.624969 5.73119 0.913978 6.00555 1.25998C6.2811 0.91649 6.62932 0.630006 7.02842 0.418459C7.42752 0.206912 7.86892 0.0748571 8.32497 0.0305578C8.78103 -0.0137416 9.24193 0.0306689 9.67883 0.16101C10.1157 0.29135 10.5192 0.504815 10.8641 0.788045C11.2089 1.07127 11.4877 1.41817 11.6829 1.80702C11.8781 2.19588 11.9856 2.61831 11.9987 3.0479C12.0117 3.47748 11.93 3.90497 11.7587 4.30359C11.5873 4.70222 11.3301 5.06341 11.003 5.36455" fill="white" fill-opacity="0.5"/>
</svg>
