<svg width="28" height="30" viewBox="0 0 28 30" fill="none" xmlns="http://www.w3.org/2000/svg">
<path d="M28 12.1875C28 5.45625 21.7317 0 14 0C6.26827 0 0 5.45625 0 12.1875C0 14.2641 0.600133 16.2169 1.652 17.9278C1.19747 19.6612 0.933333 20.9925 0.933333 21.5625C0.933333 22.7887 1.86667 24.375 3.73333 24.375H6.53333V28.125C6.53333 29.1609 7.36867 30 8.4 30H10.2667V27.1875C10.2667 26.67 10.6848 26.25 11.2 26.25C11.7152 26.25 12.1333 26.67 12.1333 27.1875V30H15.8667V27.1875C15.8667 26.67 16.2848 26.25 16.8 26.25C17.3152 26.25 17.7333 26.67 17.7333 27.1875V30H19.6C20.6313 30 21.4667 29.1609 21.4667 28.125V24.375H24.2667C26.1333 24.375 27.0667 22.7887 27.0667 21.5625C27.0667 20.9925 26.8025 19.6612 26.348 17.9278C27.3999 16.2169 28 14.2641 28 12.1875ZM4.66667 15C4.66667 12.9291 6.33827 11.25 8.4 11.25C10.4617 11.25 12.1333 12.9291 12.1333 15C12.1333 17.0709 10.4617 18.75 8.4 18.75C6.33827 18.75 4.66667 17.0709 4.66667 15ZM19.6 18.75C17.5383 18.75 15.8667 17.0709 15.8667 15C15.8667 12.9291 17.5383 11.25 19.6 11.25C21.6617 11.25 23.3333 12.9291 23.3333 15C23.3333 17.0709 21.6617 18.75 19.6 18.75Z" fill="white"/>
</svg>
