<svg width="28" height="52" viewBox="0 0 28 52" fill="none" xmlns="http://www.w3.org/2000/svg">
<path d="M28 0H24V4H28V0Z" fill="#D9D9D9" fill-opacity="0.5"/>
<path d="M24 4H20V8H24V4Z" fill="#D9D9D9" fill-opacity="0.5"/>
<path d="M20 8H16V12H20V8Z" fill="#D9D9D9" fill-opacity="0.5"/>
<path d="M16 12H12V16H16V12Z" fill="#D9D9D9" fill-opacity="0.5"/>
<path d="M12 16H8V20H12V16Z" fill="#D9D9D9" fill-opacity="0.5"/>
<path d="M8 20H4V24H8V20Z" fill="#D9D9D9" fill-opacity="0.5"/>
<path d="M4 28H8V32H4V28Z" fill="#D9D9D9" fill-opacity="0.5"/>
<path d="M8 32H12V36H8V32Z" fill="#D9D9D9" fill-opacity="0.5"/>
<path d="M12 36H16V40H12V36Z" fill="#D9D9D9" fill-opacity="0.5"/>
<path d="M16 40H20V44H16V40Z" fill="#D9D9D9" fill-opacity="0.5"/>
<path d="M20 44H24V48H20V44Z" fill="#D9D9D9" fill-opacity="0.5"/>
<path d="M24 48H28V52H24V48Z" fill="#D9D9D9" fill-opacity="0.5"/>
<path d="M4 24H0V28H4V24Z" fill="#D9D9D9" fill-opacity="0.5"/>
</svg>
