<svg width="48" height="48" viewBox="0 0 48 48" fill="none" xmlns="http://www.w3.org/2000/svg">
<path d="M0 38.4047C0 42.6041 0 44.9501 1.52418 46.4751C3.04836 48 5.39326 48 9.59062 48H38.4094C42.6067 48 44.9516 48 46.4758 46.4751C48 44.9501 48 42.6041 48 38.4047V9.59531C48 5.39589 48 3.04985 46.4758 1.52493C44.9516 0 42.6067 0 38.4094 0H9.61407C5.41671 0 3.07182 0 1.54764 1.52493C0.0234575 3.04985 0.0234575 5.39589 0.0234575 9.59531V38.4047H0Z" fill="#FF0000"/>
<path d="M18.6179 15.6727C16.8123 15.6727 15.1474 16.3296 14.0922 17.5261H13.717V15.9777H9.47278V38.1947H13.717V30.4762H14.0922C15.0771 31.5554 16.6716 32.3296 18.6179 32.3296C22.9794 32.3296 25.9574 28.8105 25.9574 24.0012C25.9574 19.1918 22.9794 15.6727 18.6179 15.6727ZM17.6799 28.3883C15.3585 28.3883 13.717 26.5349 13.717 24.0012C13.717 21.4674 15.3819 19.6141 17.6799 19.6141C20.0014 19.6141 21.6897 21.4674 21.6897 24.0012C21.6897 26.5349 20.0248 28.3883 17.6799 28.3883ZM32.4996 19.9425V24.8457C32.4996 27.1683 33.5079 28.0833 35.7356 28.0833H39.0653V32.0246H34.9383C30.4127 32.0246 28.2554 29.6786 28.2554 25.3384V9.80762H32.4996V15.9777H39.0419V19.919H32.4996V19.9425Z" fill="white"/>
</svg>
