<svg width="139" height="70" viewBox="0 0 139 70" fill="none" xmlns="http://www.w3.org/2000/svg">
<path d="M125.218 70C126.202 70 127.003 69.2019 126.973 68.2184C126.52 53.4822 120.469 39.4443 110.012 28.9878C99.1352 18.1107 84.3827 12 69.0001 12C53.6175 12 38.865 18.1107 27.9879 28.9878C17.5314 39.4443 11.4798 53.4822 11.0274 68.2184C10.9972 69.2019 11.7977 70 12.7816 70C13.7655 70 14.5601 69.2018 14.5922 68.2184C15.0434 54.4275 20.7191 41.2955 30.5073 31.5072C40.7163 21.2983 54.5625 15.563 69.0001 15.563C83.4377 15.563 97.284 21.2983 107.493 31.5072C117.281 41.2955 122.957 54.4275 123.408 68.2184C123.44 69.2018 124.235 70 125.218 70Z" fill="#A3E2FD" fill-opacity="0.5"/>
<path d="M115.225 69.5C116.188 69.5 116.972 68.7187 116.937 67.7563C116.498 55.7918 111.553 44.4086 103.057 35.9124C94.1488 27.0044 82.067 22 69.4692 22C56.8714 22 44.7896 27.0044 35.8816 35.9124C27.3855 44.4086 22.4403 55.7918 22.0011 67.7562C21.9658 68.7187 22.7499 69.5 23.7129 69.5C24.676 69.5 25.4531 68.7186 25.4912 67.7563C25.9285 56.7172 30.5056 46.2205 38.3477 38.3785C46.6016 30.1245 57.7964 25.4875 69.4692 25.4875C81.142 25.4875 92.3368 30.1245 100.591 38.3785C108.433 46.2205 113.01 56.7172 113.447 67.7564C113.485 68.7187 114.262 69.5 115.225 69.5Z" fill="#A3E2FD" fill-opacity="0.75"/>
<path d="M137.262 69.5C138.21 69.5 138.981 68.7311 138.958 67.783C138.518 49.9727 131.251 32.9846 118.623 20.3561C105.589 7.3223 87.9118 1.39162e-06 69.4793 0C51.0468 -1.39162e-06 33.3692 7.3223 20.3354 20.3561C7.70687 32.9846 0.440176 49.9727 0.000519075 67.783C-0.0228837 68.7311 0.7481 69.5 1.69642 69.5C2.64474 69.5 3.41118 68.731 3.4358 67.783C3.87469 50.8836 10.7793 34.7689 22.7637 22.7844C35.1535 10.3947 51.9576 3.43418 69.4793 3.43418C87.0011 3.43418 103.805 10.3947 116.195 22.7844C128.179 34.7689 135.084 50.8836 135.523 67.783C135.547 68.731 136.314 69.5 137.262 69.5Z" fill="#A3E2FD" fill-opacity="0.25"/>
</svg>
