<svg width="28" height="52" viewBox="0 0 28 52" fill="none" xmlns="http://www.w3.org/2000/svg">
<path d="M0 0H4V4H0V0Z" fill="#D9D9D9" fill-opacity="0.5"/>
<path d="M4 4H8V8H4V4Z" fill="#D9D9D9" fill-opacity="0.5"/>
<path d="M8 8H12V12H8V8Z" fill="#D9D9D9" fill-opacity="0.5"/>
<path d="M12 12H16V16H12V12Z" fill="#D9D9D9" fill-opacity="0.5"/>
<path d="M16 16H20V20H16V16Z" fill="#D9D9D9" fill-opacity="0.5"/>
<path d="M20 20H24V24H20V20Z" fill="#D9D9D9" fill-opacity="0.5"/>
<path d="M24 28H20V32H24V28Z" fill="#D9D9D9" fill-opacity="0.5"/>
<path d="M20 32H16V36H20V32Z" fill="#D9D9D9" fill-opacity="0.5"/>
<path d="M16 36H12V40H16V36Z" fill="#D9D9D9" fill-opacity="0.5"/>
<path d="M12 40H8V44H12V40Z" fill="#D9D9D9" fill-opacity="0.5"/>
<path d="M8 44H4V48H8V44Z" fill="#D9D9D9" fill-opacity="0.5"/>
<path d="M4 48H0V52H4V48Z" fill="#D9D9D9" fill-opacity="0.5"/>
<path d="M24 24H28V28H24V24Z" fill="#D9D9D9" fill-opacity="0.5"/>
</svg>
